<?xml version="1.0" encoding="iso-8859-1"?>
<!-- Generator: Adobe Illustrator 19.0.0, SVG Export Plug-In . SVG Version: 6.00 Build 0)  -->
<svg xmlns="http://www.w3.org/2000/svg" xmlns:xlink="http://www.w3.org/1999/xlink" version="1.1" id="Capa_1" x="0px" y="0px" viewBox="0 0 512.001 512.001" style="enable-background:new 0 0 512.001 512.001;" xml:space="preserve" width="512px" height="512px">
<g>
	<g>
		<path d="M391.105,120.92c-9.444-9.444-22-14.645-35.355-14.645c-13.355,0-25.911,5.201-35.355,14.645    c-9.443,9.444-14.645,22-14.645,35.355c0,13.355,5.201,25.912,14.645,35.355c9.444,9.444,22,14.645,35.355,14.645    c13.355,0,25.911-5.201,35.355-14.645c9.443-9.444,14.645-22,14.645-35.355C405.75,142.919,400.549,130.363,391.105,120.92z     M376.962,177.488c-5.666,5.667-13.2,8.787-21.213,8.787s-15.547-3.121-21.213-8.787c-5.666-5.666-8.787-13.2-8.787-21.213    s3.12-15.547,8.787-21.213c5.666-5.667,13.2-8.787,21.213-8.787s15.547,3.121,21.213,8.787c5.667,5.666,8.787,13.2,8.787,21.213    S382.628,171.822,376.962,177.488z" fill="#FFFFFF"/>
	</g>
</g>
<g>
	<g>
		<path d="M495.931,16.094C485.252,5.415,470.24,0,451.313,0c-58.198,0-147.462,51.658-227.409,131.605    c-5.114,5.114-10.128,10.295-15.042,15.524h-77.78c-3.099,0-6.022,1.437-7.916,3.89L2.109,307.846    c-2.688,3.482-2.785,8.311-0.238,11.899c1.913,2.694,4.978,4.212,8.156,4.212c1.052,0,2.116-0.167,3.155-0.512l112.057-37.282    l4.025,4.025l-7.668,7.668c-5.064,5.065-7.854,11.817-7.854,19.012s2.79,13.946,7.854,19.012l8.89,8.889L96.975,378.28    c-4.898,4.898-7.596,11.427-7.596,18.385c0,6.957,2.697,13.487,7.597,18.386c4.898,4.898,11.428,7.595,18.385,7.595    c6.957,0,13.486-2.698,18.385-7.596l33.511-33.511l8.889,8.89c5.066,5.065,11.817,7.854,19.012,7.854    c7.194,0,13.946-2.789,19.012-7.854l7.668-7.668l4.025,4.025l-37.282,112.058c-1.389,4.174,0.113,8.765,3.7,11.311    c1.735,1.232,3.763,1.846,5.787,1.846c2.159,0,4.314-0.697,6.111-2.084l156.829-121.056c2.453-1.894,3.89-4.817,3.89-7.916v-77.78    c5.229-4.914,10.41-9.928,15.523-15.042c50.708-50.709,90.917-106.057,113.22-155.849c2.19-4.89,4.183-9.68,5.98-14.367    c0.018-0.046,0.036-0.092,0.053-0.137C517.225,71.956,516.014,36.177,495.931,16.094z M120.965,266.506L37.969,294.12    l98.027-126.992h54.794C162.175,200.082,138.073,234.298,120.965,266.506z M135.739,311.999l7.668-7.668l13.759,13.759    l-12.537,12.537l-8.89-8.89C133.099,319.098,133.099,314.638,135.739,311.999z M119.603,400.907    c-1.12,1.121-2.627,1.738-4.242,1.738s-3.123-0.618-4.243-1.738c-1.121-1.121-1.738-2.627-1.738-4.243    c0-1.615,0.617-3.122,1.738-4.242l157.367-157.368c1.121-1.12,2.627-1.737,4.242-1.737c1.614,0,3.121,0.617,4.242,1.738    c2.297,2.297,2.299,6.174,0.01,8.475c-0.004,0.003-0.007,0.007-0.01,0.01L119.603,400.907z M200.026,376.286    c-1.287,1.288-3.017,1.997-4.869,1.997c-1.853,0-3.582-0.709-4.869-1.996l-8.889-8.89l12.537-12.537l13.758,13.758    L200.026,376.286z M344.897,376.03l-126.993,98.025l27.612-82.994c32.209-17.108,66.427-41.211,99.381-69.827V376.03z     M475.386,124.096c-21.33,47.625-60.08,100.854-109.108,149.882c-40.8,40.8-85.678,75.297-127.131,97.807l-3.168-3.168    l21.944-21.944c3.905-3.905,3.905-10.237,0-14.142c-3.906-3.905-10.236-3.905-14.143,0l-21.944,21.944l-13.759-13.758    l83.035-83.035c0.089-0.089,0.171-0.182,0.259-0.272c0.218-0.225,0.436-0.448,0.646-0.68c0.098-0.108,0.188-0.22,0.284-0.329    c0.193-0.221,0.388-0.442,0.573-0.669c0.077-0.094,0.147-0.19,0.223-0.285c0.198-0.249,0.395-0.497,0.582-0.752    c0.051-0.068,0.097-0.138,0.147-0.207c0.206-0.286,0.409-0.574,0.603-0.867c0.025-0.039,0.049-0.078,0.074-0.117    c0.213-0.325,0.419-0.653,0.616-0.986c0.008-0.013,0.015-0.026,0.022-0.039c1.066-1.812,1.904-3.743,2.5-5.759    c0.014-0.046,0.024-0.094,0.038-0.14c0.101-0.346,0.196-0.694,0.281-1.045c0.037-0.148,0.066-0.299,0.101-0.448    c0.056-0.248,0.113-0.494,0.162-0.744c0.064-0.328,0.118-0.657,0.17-0.986c0.012-0.072,0.025-0.143,0.036-0.215    c0.378-2.546,0.378-5.138,0.001-7.685c-0.014-0.088-0.031-0.175-0.045-0.264c-0.05-0.312-0.1-0.624-0.161-0.935    c-0.053-0.272-0.115-0.54-0.177-0.81c-0.029-0.127-0.055-0.256-0.086-0.383c-0.09-0.373-0.191-0.742-0.299-1.109    c-0.007-0.025-0.013-0.05-0.02-0.074c-0.716-2.427-1.783-4.732-3.179-6.853c-0.011-0.016-0.021-0.032-0.03-0.048    c-0.211-0.319-0.431-0.632-0.656-0.942c-0.031-0.044-0.061-0.088-0.094-0.132c-0.209-0.285-0.428-0.564-0.65-0.84    c-0.052-0.065-0.101-0.133-0.154-0.198c-0.221-0.271-0.451-0.535-0.684-0.797c-0.059-0.066-0.113-0.135-0.173-0.2    c-0.295-0.326-0.599-0.646-0.911-0.958c-1.531-1.531-3.221-2.846-5.033-3.932c-3.988-2.389-8.568-3.664-13.352-3.664    c-0.001,0-0.001,0-0.001,0c-6.957,0-13.486,2.697-18.384,7.595l-83.034,83.035l-13.759-13.759l21.945-21.944    c3.905-3.905,3.905-10.237,0-14.142c-3.905-3.905-10.235-3.905-14.143-0.001l-21.945,21.944l-3.167-3.167    c22.508-41.452,57.006-86.331,97.807-127.132c49.891-49.89,104.395-88.914,150.72-109.542    c2.893,21.909,12.963,42.606,28.704,58.348c15.729,15.729,36.402,25.794,58.289,28.695    C475.632,123.532,475.513,123.812,475.386,124.096z M483.455,103.918c-19.394-1.317-38.017-9.681-51.842-23.507    c-13.843-13.842-22.196-32.465-23.507-51.905C424.044,22.962,438.656,20,451.313,20c13.43,0,23.684,3.444,30.476,10.236    C494.949,43.396,495.384,69.699,483.455,103.918z" fill="#FFFFFF"/>
	</g>
</g>
<g>
	<g>
		<path d="M278.404,312.047c-3.905-3.905-10.235-3.905-14.142,0l-0.167,0.167c-3.905,3.905-3.905,10.237,0,14.142    c1.953,1.953,4.512,2.929,7.071,2.929c2.56,0,5.118-0.977,7.071-2.929l0.167-0.167    C282.309,322.284,282.309,315.952,278.404,312.047z" fill="#FFFFFF"/>
	</g>
</g>
<g>
	<g>
		<path d="M199.975,233.617c-3.906-3.905-10.236-3.905-14.142,0l-0.167,0.167c-3.905,3.905-3.905,10.237,0,14.142    c1.953,1.953,4.512,2.929,7.071,2.929c2.56,0,5.118-0.977,7.071-2.929l0.167-0.167C203.88,243.854,203.88,237.522,199.975,233.617    z" fill="#FFFFFF"/>
	</g>
</g>
<g>
</g>
<g>
</g>
<g>
</g>
<g>
</g>
<g>
</g>
<g>
</g>
<g>
</g>
<g>
</g>
<g>
</g>
<g>
</g>
<g>
</g>
<g>
</g>
<g>
</g>
<g>
</g>
<g>
</g>
</svg>
